<?xml version="1.0" encoding="UTF-8" standalone="no"?>
<!-- Generator: Adobe Illustrator 16.0.0, SVG Export Plug-In . SVG Version: 6.00 Build 0)  -->
<!DOCTYPE svg  PUBLIC '-//W3C//DTD SVG 1.1//EN'  'http://www.w3.org/Graphics/SVG/1.1/DTD/svg11.dtd'>
<svg id="Capa_1" style="enable-background:new 0 0 474.634 474.634" xmlns="http://www.w3.org/2000/svg" xml:space="preserve" height="512px" viewBox="0 0 474.634 474.634" width="512px" version="1.1" y="0px" x="0px" xmlns:xlink="http://www.w3.org/1999/xlink">
		<path d="m453.06 13.724c-0.041-0.401-0.076-0.812-0.122-1.211-0.762-7.234-8.033-13.327-15.381-12.424-4.515 0.557-13.025 13.802-15.772 17.232-5.601 6.975-10.796 14.231-17.285 20.432-13.503 12.89-31.225 21.068-48.226 28.312-35.942 15.312-76.124 20.799-114.51 26.53-20.418 3.047-40.964 6.449-61.022 11.446-89.165 22.219-131.1 83.088-121.45 174.72 1.716 16.352 27.507 16.52 25.761 0-5.119-48.682 0.188-96.781 43.6-126.12 33.591-22.701 77.972-28.784 117.01-35.655 64.927-11.428 137.51-21.439 184.71-69.022 5.316 73.994 1.188 151.4-33.951 217.45-54.228 101.94-186.64 100.13-278.52 54.751 31.154-36.806 68.461-69.147 108.22-98.985 13.111-9.844 0.294-32.232-13.004-22.249-90.124 67.656-168.94 146.95-196.31 259.64-3.92 16.143 20.931 22.993 24.847 6.85 11.456-47.179 32.529-88.138 59.823-124.7 96.634 49.526 228.11 54.654 300.8-37.495 61.738-78.27 60.86-194.4 50.892-288.5-0.03-0.336-0.06-0.669-0.11-0.996z" fill="#ffc107"/>
</svg>
