<?xml version="1.0" encoding="UTF-8" standalone="no"?>
<!-- Generator: Adobe Illustrator 16.0.0, SVG Export Plug-In . SVG Version: 6.00 Build 0)  -->
<!DOCTYPE svg  PUBLIC '-//W3C//DTD SVG 1.1//EN'  'http://www.w3.org/Graphics/SVG/1.1/DTD/svg11.dtd'>
<svg id="Capa_1" style="enable-background:new 0 0 753.23 753.23" xmlns="http://www.w3.org/2000/svg" xml:space="preserve" height="512px" viewBox="0 0 753.23 753.23" width="512px" version="1.1" y="0px" x="0px" xmlns:xlink="http://www.w3.org/1999/xlink">
	<g id="_x37__15_">
			<path d="m609.76 163.66c-103.21 29.43-122.11 112.87-115.45 165.88-73.63-86.55-70.62-186.12-70.62-329.54-236.16 89.046-181.24 345.73-188.31 423.69-59.387-48.631-70.615-164.77-70.615-164.77-62.707 32.271-94.154 118.42-94.154 188.31 0 169.01 136.99 306 306 306s306-136.99 306-306c0.01-100.44-73.74-146.76-72.85-283.57zm-221.38 542.49c-149.49 0-270.69-126.14-270.69-267.75 0-32.906 0.729-59.575 23.538-85.327-2.495 14.9 32.883 142.53 148.41 135.84-5.014-96.955-31.235-334.48 90.576-416.58-10.781 129.08 20.831 302.49 161.85 327.82-8.074-51.761-7.133-137.89 29.141-153.8 3.884 79.301 62.541 128.24 62.541 204.46 0 138-133.53 255.34-245.37 255.34z" fill="#ffc107"/>
	</g>
</svg>
