<?xml version="1.0" encoding="UTF-8" standalone="no"?>
<svg xmlns="http://www.w3.org/2000/svg" height="42px" width="149px" version="1.1" xmlns:xlink="http://www.w3.org/1999/xlink" viewBox="0 0 149 42"><!-- Generator: sketchtool 39.1 (31720) - http://www.bohemiancoding.com/sketch -->
 <title>BC5F260E-727F-4C74-9AFF-D00AD899313D</title>
 <desc>Created with sketchtool.</desc>
 <g id="Page-1" fill-rule="evenodd" fill="none">
  <g id="900-states" transform="translate(-203 -106)">
   <g id="logo" transform="translate(203 106)">
    <path id="Shape" fill="#299D37" d="m54.14 11.23c0-4.56 2.68-7.52 7.48-7.52 1.495-0.0587 2.984 0.2288 4.35 0.84l-0.64 1.67c-1.176-0.4265-2.419-0.6398-3.67-0.63-2.93-0.02-5.24 1.57-5.24 5.44 0 3.95 2.39 5.66 5.64 5.66 1.157 0.014 2.308-0.158 3.41-0.51l0.52 1.72c-1.369 0.519-2.827 0.764-4.29 0.72-4.98 0-7.56-2.95-7.56-7.39zm13.15 1c0-2.29 0.44-5.89 1.74-7.1 1.14-1.06 4.18-1.78 7.72-2.43l0.35 1.92c-3.15 0.53-5.94 1.02-6.62 1.68-0.601 0.8378-0.948 1.8305-1 2.86 1.181-0.6463 2.504-0.9899 3.85-1 2.71 0 4.43 1.33 4.43 4.72 0 3.99-2.34 5.77-5.46 5.77-3.1 0-5.01-1.92-5.01-6.42zm8.3 0.73c0-1.77-0.77-3.14-2.82-3.14-1.178 0.0423-2.328 0.372-3.35 0.96-0.02 0.36-0.04 0.9-0.04 1.26 0 3.34 1.01 4.89 3.08 4.89 2.45 0 3.13-2.04 3.13-3.97zm3.95 0.13c0-4.42 2.27-6.08 5.11-6.08 3.16 0 4.49 1.99 4.49 5.63v0.75h-7.43c0.02 2.95 1.72 3.54 3.7 3.54 1.056-0.004 2.104-0.17 3.11-0.49l0.37 1.66c-1.226 0.42-2.514 0.627-3.81 0.61-3.37 0-5.54-1.31-5.54-5.62zm7.36-1.19c0-1.98-0.72-3.27-2.38-3.27-1.49 0-2.6 1.08-2.75 3.27h5.13zm4.51-4.54h2.25v0.82c0.846-0.7367 1.928-1.1448 3.05-1.15 2.67 0 4.49 1.85 4.49 5.57 0 4.56-2.73 5.99-5.77 5.99-0.591 0.014-1.182-0.006-1.77-0.06v4.12h-2.25v-15.29zm7.6 5.34c0-2.03-0.72-3.85-2.9-3.85-0.879 0.044-1.729 0.3351-2.45 0.84v7.08c0.57 0.117 1.149 0.184 1.73 0.2 2.59 0 3.62-1.78 3.62-4.27zm4.06-0.47c0-2.29 0.44-5.89 1.74-7.1 1.14-1.06 4.18-1.78 7.72-2.43l0.35 1.92c-3.15 0.53-5.94 1.02-6.62 1.68-0.6 0.8378-0.95 1.8305-1 2.86 1.18-0.6463 2.5-0.9899 3.85-1 2.71 0 4.43 1.33 4.43 4.72 0 3.99-2.34 5.77-5.46 5.77s-5.01-1.92-5.01-6.42zm8.3 0.73c0-1.77-0.77-3.14-2.82-3.14-1.18 0.0423-2.33 0.372-3.35 0.96-0.02 0.36-0.04 0.9-0.04 1.26 0 3.34 1.01 4.89 3.08 4.89 2.45 0 3.13-2.04 3.13-3.97zm3.56 2.5c0-2.82 2.53-3.4 4.49-3.42l2.46-0.04v-1.2c0-1.54-0.78-1.95-2.44-1.95-1.08-0.001-2.15 0.1816-3.16 0.54l-0.46-1.62c1.26-0.5149 2.61-0.7733 3.97-0.76 2.71 0 4.2 0.94 4.2 3.21v5.83c0.02 0.279 0.17 0.535 0.39 0.7 0.23 0.165 0.52 0.224 0.79 0.16l-0.17 1.64c-0.14 0.024-0.29 0.037-0.43 0.04-1.16 0-2.29-0.35-2.5-1.35-1.02 0.881-2.31 1.38-3.66 1.41-2.09 0-3.48-1.13-3.48-3.19zm6.95 0.49v-2.58l-2.4 0.11c-1.55 0.04-2.44 0.69-2.44 1.84 0 1.12 0.83 1.51 1.93 1.51 1.03-0.025 2.04-0.329 2.91-0.88zm5.14-8.59h2.17v4.66h5.32v-4.66h2.17v11.2h-2.17v-4.84h-5.32v4.84h-2.17v-11.2zm12.33 0h2.17v11.2h-2.17v-11.2zm5.46 9.18l-3.21-3.8 4.5-5.38h2.44l-4.6 5.22 2.24 2.45c0.72 0.934 1.7 1.637 2.81 2.02l-0.37 1.63c-1.53-0.08-2.94-0.871-3.81-2.14zm-100.47 3.56c-0.163 12.125-10.039 21.869-22.165 21.869s-22.002-9.744-22.165-21.869c0-0.49 0.02-0.98 0.05-1.46l13.42 7.63 28.42-16.16c1.608 3.084 2.445 6.512 2.44 9.99zm-30.86 0.61l-12.49-7.1c-0.25156 0.79-0.45198 1.595-0.6 2.41l13.09 7.44 27.2-15.46c-0.446-0.6704-0.93-1.3148-1.45-1.93l-25.75 14.64zm24.07-16.44c-0.62-0.5848-1.271-1.1356-1.95-1.65l-22.12 12.58-10.56-6.01c-0.3996 0.6926-0.7602 1.407-1.08 2.14l11.64 6.62 24.07-13.68zm-24.07 8.31l19.88-11.3c-0.834-0.48429-1.699-0.91192-2.59-1.28l-17.29 9.82-7.7-4.37c-0.5488 0.596-1.0662 1.2201-1.55 1.87l9.25 5.26z"/>
    <path id="Shape" fill="#F59726" d="m54.21 31.41c0-4.56 2.81-7.43 7.46-7.43 4.89 0 7.16 3.2 7.16 7.47 0 4.49-2.64 7.48-7.5 7.48-4.73 0-7.12-3.03-7.12-7.52zm12.36 0.02c0-3.22-1.61-5.66-5.03-5.66-3.57 0-5.09 2.44-5.09 5.62 0 3.09 1.46 5.74 4.95 5.74 3.71 0 5.17-2.48 5.17-5.7zm4.51-3.72h2.08v4.74h5.14v-4.74h2.18v11.2h-2.18v-4.76h-5.14v4.76h-2.08v-11.2zm11.06 9.74c0.901-0.265 1.675-0.848 2.18-1.64 0.62-1.15 1.02-4.24 1.14-8.1h7.25v11.2h-2.06v-9.52h-3.28c-0.31 3.9-0.7 6.28-1.45 7.65-0.699 1.134-1.829 1.936-3.13 2.22l-0.65-1.81zm12.64-1.56c0-2.83 2.54-3.4 4.51-3.42l2.47-0.04v-1.21c0-1.54-0.79-1.95-2.45-1.95-1.082 0.001-2.156 0.18-3.18 0.53l-0.45-1.62c1.262-0.517 2.616-0.775 3.98-0.76 2.72 0 4.21 0.95 4.21 3.22v5.85c0.02 0.279 0.17 0.535 0.39 0.7 0.23 0.165 0.52 0.224 0.79 0.16l-0.17 1.64c-0.14 0.024-0.29 0.037-0.43 0.04-1.16 0-2.3-0.35-2.51-1.35-1.02 0.881-2.32 1.38-3.67 1.41-2.1 0-3.49-1.12-3.49-3.2zm6.98 0.5v-2.59l-2.41 0.1c-1.56 0.05-2.45 0.7-2.45 1.85-0.003 0.489 0.21 0.954 0.583 1.27 0.372 0.316 0.865 0.452 1.347 0.37 1.048-0.067 2.06-0.412 2.93-1zm5.36-8.68h2.05v6.85l-0.06 1.5 0.98-1.52 4.83-6.83h2.18v11.2h-2.18v-6.81l0.06-1.54-0.97 1.56-4.84 6.79h-2.05v-11.2zm1.56-3.91l0.93-1.02c0.58 0.764 1.49 1.217 2.45 1.23 0.97-0.012 1.88-0.465 2.47-1.23l0.91 1.02c-0.72 1.175-2 1.89-3.38 1.89s-2.66-0.715-3.38-1.89zm11.29 3.91h2.18v4.74h5.33v-4.74h2.18v11.2h-2.18v-4.76h-5.33v4.76h-2.18v-11.2z"/>
   </g>
  </g>
 </g>
</svg>
