<svg id="Layer_1" data-name="Layer 1" xmlns="http://www.w3.org/2000/svg" viewBox="0 0 279.25 90.7"><defs><style>.cls-1{fill:#1a1f71;}.cls-2{fill:#ff5f00;}.cls-3{fill:#eb001b;}.cls-4{fill:#f79e1b;}</style></defs><title>m-v</title><path class="cls-1" d="M198.27,33.35L181.19,74.06H170l-8.38-32.54c-0.54-2-1-2.69-2.47-3.54a42.34,42.34,0,0,0-10.42-3.44L149,33.35h17.94a4.91,4.91,0,0,1,4.83,4.19l4.4,23.52,11-27.71h11.17ZM242,60.74c0-10.74-14.82-11.38-14.71-16.11,0-1.5,1.4-3,4.51-3.44A20.07,20.07,0,0,1,242.2,43L244,34.43a27.47,27.47,0,0,0-9.88-1.83c-10.42,0-17.72,5.58-17.83,13.43-0.11,5.91,5.26,9.13,9.24,11.06s5.48,3.33,5.48,5c0,2.69-3.33,4-6.34,4a21.61,21.61,0,0,1-10.85-2.58l-1.93,8.91a29.92,29.92,0,0,0,11.71,2.15c11.06,0.11,18.26-5.37,18.37-13.86m27.5,13.32h9.77l-8.48-40.71h-9a4.8,4.8,0,0,0-4.51,3l-15.9,37.7H252.4l2.15-6.12h13.53ZM257.66,59.67l5.58-15.25,3.22,15.25h-8.81ZM213.3,33.35l-8.7,40.71H194.08l8.7-40.71H213.3Z" transform="translate(0 -7.85)"/><path id="_Compound_Path_" data-name=" Compound Path " d="M21.05,97.95v-6a3.49,3.49,0,0,0-3.7-3.8,3.94,3.94,0,0,0-3.4,1.7,3.5,3.5,0,0,0-3.2-1.7,3.4,3.4,0,0,0-2.9,1.4v-1.2H6v9.6h1.9v-5.5a2.24,2.24,0,0,1,2.4-2.5c1.4,0,2.2.9,2.2,2.5v5.5h1.9v-5.5a2.24,2.24,0,0,1,2.4-2.5c1.4,0,2.2.9,2.2,2.5v5.5h2.1Zm31.2-9.5h-3.5v-2.9h-1.9v2.9h-2v1.7h2v4.5c0,2.2.8,3.5,3.2,3.5a5.59,5.59,0,0,0,2.6-.7l-0.6-1.7a3.29,3.29,0,0,1-1.8.5,1.4,1.4,0,0,1-1.5-1.6V90h3.5v-1.6Zm17.8-.3a3,3,0,0,0-2.6,1.4v-1.2h-1.9v9.6h1.9v-5.4c0-1.6.8-2.6,2.1-2.6a5.85,5.85,0,0,1,1.3.2l0.6-1.8A6.75,6.75,0,0,0,70.05,88.15Zm-26.9,1a6.86,6.86,0,0,0-3.9-1c-2.4,0-3.9,1.1-3.9,3,0,1.6,1.1,2.5,3.2,2.8l1,0.1c1.1,0.2,1.8.6,1.8,1.1,0,0.7-.8,1.2-2.3,1.2a5.27,5.27,0,0,1-3.2-1l-1,1.5A7.24,7.24,0,0,0,39,98c2.8,0,4.3-1.3,4.3-3.1s-1.2-2.5-3.3-2.8L39,92c-0.9-.1-1.7-0.4-1.7-1s0.8-1.2,1.9-1.2a7.21,7.21,0,0,1,3,.8Zm29.1,4a4.72,4.72,0,0,0,5,5,5,5,0,0,0,3.4-1.1l-1-1.5a4,4,0,0,1-2.5.9,3.21,3.21,0,0,1,0-6.4,4,4,0,0,1,2.5.9l1-1.5a5,5,0,0,0-3.4-1.1A4.48,4.48,0,0,0,72.25,93.15Zm-13.5-5c-2.8,0-4.7,2-4.7,5a4.7,4.7,0,0,0,4.39,5H59a6.12,6.12,0,0,0,3.9-1.3l-1-1.4a4.78,4.78,0,0,1-2.8,1,2.81,2.81,0,0,1-2.9-2.5h7.1v-0.8C63.25,90.15,61.45,88.15,58.75,88.15Zm0,1.8a2.39,2.39,0,0,1,2.5,2.28s0,0.08,0,.12h-5.2A2.57,2.57,0,0,1,58.75,89.95Zm-25.9,3.2v-4.8H31v1.2a3.68,3.68,0,0,0-3.1-1.4,5,5,0,0,0,0,10,3.68,3.68,0,0,0,3.1-1.4v1.2h1.9v-4.8Zm-7.8,0a3,3,0,1,1,3,3.2A2.94,2.94,0,0,1,25.05,93.15Zm73.9-5a3,3,0,0,0-2.6,1.4v-1.2h-1.9v9.6h1.9v-5.4c0-1.6.8-2.6,2.1-2.6a5.85,5.85,0,0,1,1.3.2l0.6-1.8A6.75,6.75,0,0,0,99,88.15Zm15.4,8.4a0.6,0.6,0,0,1,.4.1,0.92,0.92,0,0,1,.5.5,2.27,2.27,0,0,1,.1.4,0.6,0.6,0,0,1-.1.4c-0.1.1-.1,0.2-0.2,0.3a0.53,0.53,0,0,1-.3.2,2.27,2.27,0,0,1-.4.1,0.6,0.6,0,0,1-.4-0.1c-0.1-.1-0.2-0.1-0.3-0.2a0.53,0.53,0,0,1-.2-0.3,2.27,2.27,0,0,1-.1-0.4,0.6,0.6,0,0,1,.1-0.4c0.1-.1.1-0.2,0.2-0.3a0.53,0.53,0,0,1,.3-0.2C114.05,96.65,114.25,96.55,114.35,96.55Zm0,1.7a0.37,0.37,0,0,0,.3-0.1,0.22,0.22,0,0,0,.2-0.2l0.2-.2c0-.1.1-0.2,0.1-0.3a0.37,0.37,0,0,0-.1-0.3,0.22,0.22,0,0,0-.2-0.2l-0.2-.2c-0.1,0-.2-0.1-0.3-0.1a0.37,0.37,0,0,0-.3.1,0.22,0.22,0,0,0-.2.2l-0.2.2c0,0.1-.1.2-0.1,0.3a0.37,0.37,0,0,0,.1.3,0.22,0.22,0,0,0,.2.2l0.2,0.2A0.37,0.37,0,0,0,114.35,98.25Zm0.1-1.1a0.37,0.37,0,0,1,.3.1,0.25,0.25,0,0,1,0,.4,0.35,0.35,0,0,1-.2.1l0.3,0.3h-0.3l-0.3-.3h-0.1V98H114v-0.9h0.5Zm-0.2.1v0.2h0.3v-0.2h-0.3Zm-22.7-4.1v-4.8h-1.9v1.2a3.68,3.68,0,0,0-3.1-1.4,5,5,0,0,0,0,10,3.68,3.68,0,0,0,3.1-1.4v1.2h1.9v-4.8Zm-7.7,0a3,3,0,1,1,3,3.2C85,96.45,83.85,94.95,83.85,93.15Zm27.1,0v-8.6h-1.9v5a3.68,3.68,0,0,0-3.1-1.4,5,5,0,1,0,0,10,3.68,3.68,0,0,0,3.1-1.4v1.2H111v-4.8Zm-7.8,0a3,3,0,1,1,3,3.2,2.94,2.94,0,0,1-3-3.2h0Z" transform="translate(0 -7.85)"/><g id="_Group_" data-name=" Group "><rect class="cls-2" x="40.95" y="7.7" width="34.7" height="56.6"/><path id="_Path_" data-name=" Path " class="cls-3" d="M44.55,43.85a36.1,36.1,0,0,1,13.7-28.3,36,36,0,1,0,0,56.6A36.1,36.1,0,0,1,44.55,43.85Z" transform="translate(0 -7.85)"/><path class="cls-4" d="M113.05,66.15v-1.2h0.5v-0.2h-1.2v0.2h0.5v1.2h0.2Zm2.4,0v-1.4h-0.4l-0.4,1-0.4-1h-0.4v1.4h0.3V65l0.4,0.9h0.3l0.4-.9v1.1h0.2Z" transform="translate(0 -7.85)"/><path class="cls-4" d="M116.55,43.85a36,36,0,0,1-58.2,28.3,36.08,36.08,0,0,0,0-56.6A36,36,0,0,1,116.55,43.85Z" transform="translate(0 -7.85)"/></g></svg>