<svg xmlns="http://www.w3.org/2000/svg" viewBox="0 0 73.48 56.72"><title>yandex</title><path d="M49.35,56.7c-6.26,0-12.53-.07-18.79,0a6.5,6.5,0,0,1-6.68-6.64c0.14-8.83.07-17.67,0-26.5a7.27,7.27,0,0,1,3.85-6.71C35.48,12.36,43.23,7.91,51,3.45c1.61-.93,3.21-1.89,4.84-2.79C58.92-1,61.89.7,61.89,4.23q0,13.75,0,27.51A7.36,7.36,0,0,1,57,39Q45.78,43.47,34.6,48a10.76,10.76,0,0,0-2.52,1.4c-0.84.65-.64,1.46,0.41,1.66a5.12,5.12,0,0,0,2.2-.08q13.53-3.56,27-7.21c2.51-.68,4.59-3.69,4.6-6.63,0-5.29,0-10.59,0-15.88,0-1.62,0-1.62,1.64-1.62H69.2c2.89,0,4.27,1.4,4.28,4.33q0,6.26,0,12.52,0,7.49,0,15c0,3.47-1.76,5.22-5.23,5.22H49.35ZM46.9,21.26a2.44,2.44,0,0,0,3.19,2.53,5.27,5.27,0,0,0,3.76-4.52,2.48,2.48,0,0,0-2.93-2.67A4.81,4.81,0,0,0,46.9,21.26Z" fill="#f4d959"/><path d="M11.74,41.42A1.94,1.94,0,0,0,9,42.56C7.44,45.76,5.68,48.87,4,52a1.4,1.4,0,0,1-1.55.9c-0.77-.06-1.54,0-2.49,0L6.54,41C0.52,39.08-1,30.1,3,24.84a7.23,7.23,0,0,1,6.28-3.18c1.81,0,3.63,0,5.51,0V52.87h-3V41.42Zm-0.15-3.25V24.61c-4.13-.44-5.74.43-7,3.76a8.81,8.81,0,0,0-.58,2,8,8,0,0,0,1.9,6.52C7.42,38.7,9.55,38.1,11.59,38.17Z" fill="#cc2528"/></svg>